G75*
%MOIN*%
%OFA0B0*%
%FSLAX25Y25*%
%IPPOS*%
%LPD*%
%AMOC8*
5,1,8,0,0,1.08239X$1,22.5*
%
%ADD10C,0.00787*%
%ADD11C,0.00000*%
D10*
X0005000Y0005000D02*
X0087677Y0005000D01*
X0087677Y0048307D01*
X0005000Y0048307D01*
X0005000Y0005000D01*
D11*
X0007921Y0011890D02*
X0007923Y0011979D01*
X0007929Y0012068D01*
X0007939Y0012157D01*
X0007953Y0012245D01*
X0007970Y0012332D01*
X0007992Y0012418D01*
X0008018Y0012504D01*
X0008047Y0012588D01*
X0008080Y0012671D01*
X0008116Y0012752D01*
X0008157Y0012832D01*
X0008200Y0012909D01*
X0008247Y0012985D01*
X0008298Y0013058D01*
X0008351Y0013129D01*
X0008408Y0013198D01*
X0008468Y0013264D01*
X0008531Y0013328D01*
X0008596Y0013388D01*
X0008664Y0013446D01*
X0008735Y0013500D01*
X0008808Y0013551D01*
X0008883Y0013599D01*
X0008960Y0013644D01*
X0009039Y0013685D01*
X0009120Y0013722D01*
X0009202Y0013756D01*
X0009286Y0013787D01*
X0009371Y0013813D01*
X0009457Y0013836D01*
X0009544Y0013854D01*
X0009632Y0013869D01*
X0009721Y0013880D01*
X0009810Y0013887D01*
X0009899Y0013890D01*
X0009988Y0013889D01*
X0010077Y0013884D01*
X0010165Y0013875D01*
X0010254Y0013862D01*
X0010341Y0013845D01*
X0010428Y0013825D01*
X0010514Y0013800D01*
X0010598Y0013772D01*
X0010681Y0013740D01*
X0010763Y0013704D01*
X0010843Y0013665D01*
X0010921Y0013622D01*
X0010997Y0013576D01*
X0011071Y0013526D01*
X0011143Y0013473D01*
X0011212Y0013417D01*
X0011279Y0013358D01*
X0011343Y0013296D01*
X0011404Y0013232D01*
X0011463Y0013164D01*
X0011518Y0013094D01*
X0011570Y0013022D01*
X0011619Y0012947D01*
X0011664Y0012871D01*
X0011706Y0012792D01*
X0011744Y0012712D01*
X0011779Y0012630D01*
X0011810Y0012546D01*
X0011838Y0012461D01*
X0011861Y0012375D01*
X0011881Y0012288D01*
X0011897Y0012201D01*
X0011909Y0012112D01*
X0011917Y0012024D01*
X0011921Y0011935D01*
X0011921Y0011845D01*
X0011917Y0011756D01*
X0011909Y0011668D01*
X0011897Y0011579D01*
X0011881Y0011492D01*
X0011861Y0011405D01*
X0011838Y0011319D01*
X0011810Y0011234D01*
X0011779Y0011150D01*
X0011744Y0011068D01*
X0011706Y0010988D01*
X0011664Y0010909D01*
X0011619Y0010833D01*
X0011570Y0010758D01*
X0011518Y0010686D01*
X0011463Y0010616D01*
X0011404Y0010548D01*
X0011343Y0010484D01*
X0011279Y0010422D01*
X0011212Y0010363D01*
X0011143Y0010307D01*
X0011071Y0010254D01*
X0010997Y0010204D01*
X0010921Y0010158D01*
X0010843Y0010115D01*
X0010763Y0010076D01*
X0010681Y0010040D01*
X0010598Y0010008D01*
X0010514Y0009980D01*
X0010428Y0009955D01*
X0010341Y0009935D01*
X0010254Y0009918D01*
X0010165Y0009905D01*
X0010077Y0009896D01*
X0009988Y0009891D01*
X0009899Y0009890D01*
X0009810Y0009893D01*
X0009721Y0009900D01*
X0009632Y0009911D01*
X0009544Y0009926D01*
X0009457Y0009944D01*
X0009371Y0009967D01*
X0009286Y0009993D01*
X0009202Y0010024D01*
X0009120Y0010058D01*
X0009039Y0010095D01*
X0008960Y0010136D01*
X0008883Y0010181D01*
X0008808Y0010229D01*
X0008735Y0010280D01*
X0008664Y0010334D01*
X0008596Y0010392D01*
X0008531Y0010452D01*
X0008468Y0010516D01*
X0008408Y0010582D01*
X0008351Y0010651D01*
X0008298Y0010722D01*
X0008247Y0010795D01*
X0008200Y0010871D01*
X0008157Y0010948D01*
X0008116Y0011028D01*
X0008080Y0011109D01*
X0008047Y0011192D01*
X0008018Y0011276D01*
X0007992Y0011362D01*
X0007970Y0011448D01*
X0007953Y0011535D01*
X0007939Y0011623D01*
X0007929Y0011712D01*
X0007923Y0011801D01*
X0007921Y0011890D01*
X0007921Y0021732D02*
X0007923Y0021821D01*
X0007929Y0021910D01*
X0007939Y0021999D01*
X0007953Y0022087D01*
X0007970Y0022174D01*
X0007992Y0022260D01*
X0008018Y0022346D01*
X0008047Y0022430D01*
X0008080Y0022513D01*
X0008116Y0022594D01*
X0008157Y0022674D01*
X0008200Y0022751D01*
X0008247Y0022827D01*
X0008298Y0022900D01*
X0008351Y0022971D01*
X0008408Y0023040D01*
X0008468Y0023106D01*
X0008531Y0023170D01*
X0008596Y0023230D01*
X0008664Y0023288D01*
X0008735Y0023342D01*
X0008808Y0023393D01*
X0008883Y0023441D01*
X0008960Y0023486D01*
X0009039Y0023527D01*
X0009120Y0023564D01*
X0009202Y0023598D01*
X0009286Y0023629D01*
X0009371Y0023655D01*
X0009457Y0023678D01*
X0009544Y0023696D01*
X0009632Y0023711D01*
X0009721Y0023722D01*
X0009810Y0023729D01*
X0009899Y0023732D01*
X0009988Y0023731D01*
X0010077Y0023726D01*
X0010165Y0023717D01*
X0010254Y0023704D01*
X0010341Y0023687D01*
X0010428Y0023667D01*
X0010514Y0023642D01*
X0010598Y0023614D01*
X0010681Y0023582D01*
X0010763Y0023546D01*
X0010843Y0023507D01*
X0010921Y0023464D01*
X0010997Y0023418D01*
X0011071Y0023368D01*
X0011143Y0023315D01*
X0011212Y0023259D01*
X0011279Y0023200D01*
X0011343Y0023138D01*
X0011404Y0023074D01*
X0011463Y0023006D01*
X0011518Y0022936D01*
X0011570Y0022864D01*
X0011619Y0022789D01*
X0011664Y0022713D01*
X0011706Y0022634D01*
X0011744Y0022554D01*
X0011779Y0022472D01*
X0011810Y0022388D01*
X0011838Y0022303D01*
X0011861Y0022217D01*
X0011881Y0022130D01*
X0011897Y0022043D01*
X0011909Y0021954D01*
X0011917Y0021866D01*
X0011921Y0021777D01*
X0011921Y0021687D01*
X0011917Y0021598D01*
X0011909Y0021510D01*
X0011897Y0021421D01*
X0011881Y0021334D01*
X0011861Y0021247D01*
X0011838Y0021161D01*
X0011810Y0021076D01*
X0011779Y0020992D01*
X0011744Y0020910D01*
X0011706Y0020830D01*
X0011664Y0020751D01*
X0011619Y0020675D01*
X0011570Y0020600D01*
X0011518Y0020528D01*
X0011463Y0020458D01*
X0011404Y0020390D01*
X0011343Y0020326D01*
X0011279Y0020264D01*
X0011212Y0020205D01*
X0011143Y0020149D01*
X0011071Y0020096D01*
X0010997Y0020046D01*
X0010921Y0020000D01*
X0010843Y0019957D01*
X0010763Y0019918D01*
X0010681Y0019882D01*
X0010598Y0019850D01*
X0010514Y0019822D01*
X0010428Y0019797D01*
X0010341Y0019777D01*
X0010254Y0019760D01*
X0010165Y0019747D01*
X0010077Y0019738D01*
X0009988Y0019733D01*
X0009899Y0019732D01*
X0009810Y0019735D01*
X0009721Y0019742D01*
X0009632Y0019753D01*
X0009544Y0019768D01*
X0009457Y0019786D01*
X0009371Y0019809D01*
X0009286Y0019835D01*
X0009202Y0019866D01*
X0009120Y0019900D01*
X0009039Y0019937D01*
X0008960Y0019978D01*
X0008883Y0020023D01*
X0008808Y0020071D01*
X0008735Y0020122D01*
X0008664Y0020176D01*
X0008596Y0020234D01*
X0008531Y0020294D01*
X0008468Y0020358D01*
X0008408Y0020424D01*
X0008351Y0020493D01*
X0008298Y0020564D01*
X0008247Y0020637D01*
X0008200Y0020713D01*
X0008157Y0020790D01*
X0008116Y0020870D01*
X0008080Y0020951D01*
X0008047Y0021034D01*
X0008018Y0021118D01*
X0007992Y0021204D01*
X0007970Y0021290D01*
X0007953Y0021377D01*
X0007939Y0021465D01*
X0007929Y0021554D01*
X0007923Y0021643D01*
X0007921Y0021732D01*
X0007921Y0031575D02*
X0007923Y0031664D01*
X0007929Y0031753D01*
X0007939Y0031842D01*
X0007953Y0031930D01*
X0007970Y0032017D01*
X0007992Y0032103D01*
X0008018Y0032189D01*
X0008047Y0032273D01*
X0008080Y0032356D01*
X0008116Y0032437D01*
X0008157Y0032517D01*
X0008200Y0032594D01*
X0008247Y0032670D01*
X0008298Y0032743D01*
X0008351Y0032814D01*
X0008408Y0032883D01*
X0008468Y0032949D01*
X0008531Y0033013D01*
X0008596Y0033073D01*
X0008664Y0033131D01*
X0008735Y0033185D01*
X0008808Y0033236D01*
X0008883Y0033284D01*
X0008960Y0033329D01*
X0009039Y0033370D01*
X0009120Y0033407D01*
X0009202Y0033441D01*
X0009286Y0033472D01*
X0009371Y0033498D01*
X0009457Y0033521D01*
X0009544Y0033539D01*
X0009632Y0033554D01*
X0009721Y0033565D01*
X0009810Y0033572D01*
X0009899Y0033575D01*
X0009988Y0033574D01*
X0010077Y0033569D01*
X0010165Y0033560D01*
X0010254Y0033547D01*
X0010341Y0033530D01*
X0010428Y0033510D01*
X0010514Y0033485D01*
X0010598Y0033457D01*
X0010681Y0033425D01*
X0010763Y0033389D01*
X0010843Y0033350D01*
X0010921Y0033307D01*
X0010997Y0033261D01*
X0011071Y0033211D01*
X0011143Y0033158D01*
X0011212Y0033102D01*
X0011279Y0033043D01*
X0011343Y0032981D01*
X0011404Y0032917D01*
X0011463Y0032849D01*
X0011518Y0032779D01*
X0011570Y0032707D01*
X0011619Y0032632D01*
X0011664Y0032556D01*
X0011706Y0032477D01*
X0011744Y0032397D01*
X0011779Y0032315D01*
X0011810Y0032231D01*
X0011838Y0032146D01*
X0011861Y0032060D01*
X0011881Y0031973D01*
X0011897Y0031886D01*
X0011909Y0031797D01*
X0011917Y0031709D01*
X0011921Y0031620D01*
X0011921Y0031530D01*
X0011917Y0031441D01*
X0011909Y0031353D01*
X0011897Y0031264D01*
X0011881Y0031177D01*
X0011861Y0031090D01*
X0011838Y0031004D01*
X0011810Y0030919D01*
X0011779Y0030835D01*
X0011744Y0030753D01*
X0011706Y0030673D01*
X0011664Y0030594D01*
X0011619Y0030518D01*
X0011570Y0030443D01*
X0011518Y0030371D01*
X0011463Y0030301D01*
X0011404Y0030233D01*
X0011343Y0030169D01*
X0011279Y0030107D01*
X0011212Y0030048D01*
X0011143Y0029992D01*
X0011071Y0029939D01*
X0010997Y0029889D01*
X0010921Y0029843D01*
X0010843Y0029800D01*
X0010763Y0029761D01*
X0010681Y0029725D01*
X0010598Y0029693D01*
X0010514Y0029665D01*
X0010428Y0029640D01*
X0010341Y0029620D01*
X0010254Y0029603D01*
X0010165Y0029590D01*
X0010077Y0029581D01*
X0009988Y0029576D01*
X0009899Y0029575D01*
X0009810Y0029578D01*
X0009721Y0029585D01*
X0009632Y0029596D01*
X0009544Y0029611D01*
X0009457Y0029629D01*
X0009371Y0029652D01*
X0009286Y0029678D01*
X0009202Y0029709D01*
X0009120Y0029743D01*
X0009039Y0029780D01*
X0008960Y0029821D01*
X0008883Y0029866D01*
X0008808Y0029914D01*
X0008735Y0029965D01*
X0008664Y0030019D01*
X0008596Y0030077D01*
X0008531Y0030137D01*
X0008468Y0030201D01*
X0008408Y0030267D01*
X0008351Y0030336D01*
X0008298Y0030407D01*
X0008247Y0030480D01*
X0008200Y0030556D01*
X0008157Y0030633D01*
X0008116Y0030713D01*
X0008080Y0030794D01*
X0008047Y0030877D01*
X0008018Y0030961D01*
X0007992Y0031047D01*
X0007970Y0031133D01*
X0007953Y0031220D01*
X0007939Y0031308D01*
X0007929Y0031397D01*
X0007923Y0031486D01*
X0007921Y0031575D01*
X0007921Y0041417D02*
X0007923Y0041506D01*
X0007929Y0041595D01*
X0007939Y0041684D01*
X0007953Y0041772D01*
X0007970Y0041859D01*
X0007992Y0041945D01*
X0008018Y0042031D01*
X0008047Y0042115D01*
X0008080Y0042198D01*
X0008116Y0042279D01*
X0008157Y0042359D01*
X0008200Y0042436D01*
X0008247Y0042512D01*
X0008298Y0042585D01*
X0008351Y0042656D01*
X0008408Y0042725D01*
X0008468Y0042791D01*
X0008531Y0042855D01*
X0008596Y0042915D01*
X0008664Y0042973D01*
X0008735Y0043027D01*
X0008808Y0043078D01*
X0008883Y0043126D01*
X0008960Y0043171D01*
X0009039Y0043212D01*
X0009120Y0043249D01*
X0009202Y0043283D01*
X0009286Y0043314D01*
X0009371Y0043340D01*
X0009457Y0043363D01*
X0009544Y0043381D01*
X0009632Y0043396D01*
X0009721Y0043407D01*
X0009810Y0043414D01*
X0009899Y0043417D01*
X0009988Y0043416D01*
X0010077Y0043411D01*
X0010165Y0043402D01*
X0010254Y0043389D01*
X0010341Y0043372D01*
X0010428Y0043352D01*
X0010514Y0043327D01*
X0010598Y0043299D01*
X0010681Y0043267D01*
X0010763Y0043231D01*
X0010843Y0043192D01*
X0010921Y0043149D01*
X0010997Y0043103D01*
X0011071Y0043053D01*
X0011143Y0043000D01*
X0011212Y0042944D01*
X0011279Y0042885D01*
X0011343Y0042823D01*
X0011404Y0042759D01*
X0011463Y0042691D01*
X0011518Y0042621D01*
X0011570Y0042549D01*
X0011619Y0042474D01*
X0011664Y0042398D01*
X0011706Y0042319D01*
X0011744Y0042239D01*
X0011779Y0042157D01*
X0011810Y0042073D01*
X0011838Y0041988D01*
X0011861Y0041902D01*
X0011881Y0041815D01*
X0011897Y0041728D01*
X0011909Y0041639D01*
X0011917Y0041551D01*
X0011921Y0041462D01*
X0011921Y0041372D01*
X0011917Y0041283D01*
X0011909Y0041195D01*
X0011897Y0041106D01*
X0011881Y0041019D01*
X0011861Y0040932D01*
X0011838Y0040846D01*
X0011810Y0040761D01*
X0011779Y0040677D01*
X0011744Y0040595D01*
X0011706Y0040515D01*
X0011664Y0040436D01*
X0011619Y0040360D01*
X0011570Y0040285D01*
X0011518Y0040213D01*
X0011463Y0040143D01*
X0011404Y0040075D01*
X0011343Y0040011D01*
X0011279Y0039949D01*
X0011212Y0039890D01*
X0011143Y0039834D01*
X0011071Y0039781D01*
X0010997Y0039731D01*
X0010921Y0039685D01*
X0010843Y0039642D01*
X0010763Y0039603D01*
X0010681Y0039567D01*
X0010598Y0039535D01*
X0010514Y0039507D01*
X0010428Y0039482D01*
X0010341Y0039462D01*
X0010254Y0039445D01*
X0010165Y0039432D01*
X0010077Y0039423D01*
X0009988Y0039418D01*
X0009899Y0039417D01*
X0009810Y0039420D01*
X0009721Y0039427D01*
X0009632Y0039438D01*
X0009544Y0039453D01*
X0009457Y0039471D01*
X0009371Y0039494D01*
X0009286Y0039520D01*
X0009202Y0039551D01*
X0009120Y0039585D01*
X0009039Y0039622D01*
X0008960Y0039663D01*
X0008883Y0039708D01*
X0008808Y0039756D01*
X0008735Y0039807D01*
X0008664Y0039861D01*
X0008596Y0039919D01*
X0008531Y0039979D01*
X0008468Y0040043D01*
X0008408Y0040109D01*
X0008351Y0040178D01*
X0008298Y0040249D01*
X0008247Y0040322D01*
X0008200Y0040398D01*
X0008157Y0040475D01*
X0008116Y0040555D01*
X0008080Y0040636D01*
X0008047Y0040719D01*
X0008018Y0040803D01*
X0007992Y0040889D01*
X0007970Y0040975D01*
X0007953Y0041062D01*
X0007939Y0041150D01*
X0007929Y0041239D01*
X0007923Y0041328D01*
X0007921Y0041417D01*
X0080756Y0041417D02*
X0080758Y0041506D01*
X0080764Y0041595D01*
X0080774Y0041684D01*
X0080788Y0041772D01*
X0080805Y0041859D01*
X0080827Y0041945D01*
X0080853Y0042031D01*
X0080882Y0042115D01*
X0080915Y0042198D01*
X0080951Y0042279D01*
X0080992Y0042359D01*
X0081035Y0042436D01*
X0081082Y0042512D01*
X0081133Y0042585D01*
X0081186Y0042656D01*
X0081243Y0042725D01*
X0081303Y0042791D01*
X0081366Y0042855D01*
X0081431Y0042915D01*
X0081499Y0042973D01*
X0081570Y0043027D01*
X0081643Y0043078D01*
X0081718Y0043126D01*
X0081795Y0043171D01*
X0081874Y0043212D01*
X0081955Y0043249D01*
X0082037Y0043283D01*
X0082121Y0043314D01*
X0082206Y0043340D01*
X0082292Y0043363D01*
X0082379Y0043381D01*
X0082467Y0043396D01*
X0082556Y0043407D01*
X0082645Y0043414D01*
X0082734Y0043417D01*
X0082823Y0043416D01*
X0082912Y0043411D01*
X0083000Y0043402D01*
X0083089Y0043389D01*
X0083176Y0043372D01*
X0083263Y0043352D01*
X0083349Y0043327D01*
X0083433Y0043299D01*
X0083516Y0043267D01*
X0083598Y0043231D01*
X0083678Y0043192D01*
X0083756Y0043149D01*
X0083832Y0043103D01*
X0083906Y0043053D01*
X0083978Y0043000D01*
X0084047Y0042944D01*
X0084114Y0042885D01*
X0084178Y0042823D01*
X0084239Y0042759D01*
X0084298Y0042691D01*
X0084353Y0042621D01*
X0084405Y0042549D01*
X0084454Y0042474D01*
X0084499Y0042398D01*
X0084541Y0042319D01*
X0084579Y0042239D01*
X0084614Y0042157D01*
X0084645Y0042073D01*
X0084673Y0041988D01*
X0084696Y0041902D01*
X0084716Y0041815D01*
X0084732Y0041728D01*
X0084744Y0041639D01*
X0084752Y0041551D01*
X0084756Y0041462D01*
X0084756Y0041372D01*
X0084752Y0041283D01*
X0084744Y0041195D01*
X0084732Y0041106D01*
X0084716Y0041019D01*
X0084696Y0040932D01*
X0084673Y0040846D01*
X0084645Y0040761D01*
X0084614Y0040677D01*
X0084579Y0040595D01*
X0084541Y0040515D01*
X0084499Y0040436D01*
X0084454Y0040360D01*
X0084405Y0040285D01*
X0084353Y0040213D01*
X0084298Y0040143D01*
X0084239Y0040075D01*
X0084178Y0040011D01*
X0084114Y0039949D01*
X0084047Y0039890D01*
X0083978Y0039834D01*
X0083906Y0039781D01*
X0083832Y0039731D01*
X0083756Y0039685D01*
X0083678Y0039642D01*
X0083598Y0039603D01*
X0083516Y0039567D01*
X0083433Y0039535D01*
X0083349Y0039507D01*
X0083263Y0039482D01*
X0083176Y0039462D01*
X0083089Y0039445D01*
X0083000Y0039432D01*
X0082912Y0039423D01*
X0082823Y0039418D01*
X0082734Y0039417D01*
X0082645Y0039420D01*
X0082556Y0039427D01*
X0082467Y0039438D01*
X0082379Y0039453D01*
X0082292Y0039471D01*
X0082206Y0039494D01*
X0082121Y0039520D01*
X0082037Y0039551D01*
X0081955Y0039585D01*
X0081874Y0039622D01*
X0081795Y0039663D01*
X0081718Y0039708D01*
X0081643Y0039756D01*
X0081570Y0039807D01*
X0081499Y0039861D01*
X0081431Y0039919D01*
X0081366Y0039979D01*
X0081303Y0040043D01*
X0081243Y0040109D01*
X0081186Y0040178D01*
X0081133Y0040249D01*
X0081082Y0040322D01*
X0081035Y0040398D01*
X0080992Y0040475D01*
X0080951Y0040555D01*
X0080915Y0040636D01*
X0080882Y0040719D01*
X0080853Y0040803D01*
X0080827Y0040889D01*
X0080805Y0040975D01*
X0080788Y0041062D01*
X0080774Y0041150D01*
X0080764Y0041239D01*
X0080758Y0041328D01*
X0080756Y0041417D01*
X0080756Y0031575D02*
X0080758Y0031664D01*
X0080764Y0031753D01*
X0080774Y0031842D01*
X0080788Y0031930D01*
X0080805Y0032017D01*
X0080827Y0032103D01*
X0080853Y0032189D01*
X0080882Y0032273D01*
X0080915Y0032356D01*
X0080951Y0032437D01*
X0080992Y0032517D01*
X0081035Y0032594D01*
X0081082Y0032670D01*
X0081133Y0032743D01*
X0081186Y0032814D01*
X0081243Y0032883D01*
X0081303Y0032949D01*
X0081366Y0033013D01*
X0081431Y0033073D01*
X0081499Y0033131D01*
X0081570Y0033185D01*
X0081643Y0033236D01*
X0081718Y0033284D01*
X0081795Y0033329D01*
X0081874Y0033370D01*
X0081955Y0033407D01*
X0082037Y0033441D01*
X0082121Y0033472D01*
X0082206Y0033498D01*
X0082292Y0033521D01*
X0082379Y0033539D01*
X0082467Y0033554D01*
X0082556Y0033565D01*
X0082645Y0033572D01*
X0082734Y0033575D01*
X0082823Y0033574D01*
X0082912Y0033569D01*
X0083000Y0033560D01*
X0083089Y0033547D01*
X0083176Y0033530D01*
X0083263Y0033510D01*
X0083349Y0033485D01*
X0083433Y0033457D01*
X0083516Y0033425D01*
X0083598Y0033389D01*
X0083678Y0033350D01*
X0083756Y0033307D01*
X0083832Y0033261D01*
X0083906Y0033211D01*
X0083978Y0033158D01*
X0084047Y0033102D01*
X0084114Y0033043D01*
X0084178Y0032981D01*
X0084239Y0032917D01*
X0084298Y0032849D01*
X0084353Y0032779D01*
X0084405Y0032707D01*
X0084454Y0032632D01*
X0084499Y0032556D01*
X0084541Y0032477D01*
X0084579Y0032397D01*
X0084614Y0032315D01*
X0084645Y0032231D01*
X0084673Y0032146D01*
X0084696Y0032060D01*
X0084716Y0031973D01*
X0084732Y0031886D01*
X0084744Y0031797D01*
X0084752Y0031709D01*
X0084756Y0031620D01*
X0084756Y0031530D01*
X0084752Y0031441D01*
X0084744Y0031353D01*
X0084732Y0031264D01*
X0084716Y0031177D01*
X0084696Y0031090D01*
X0084673Y0031004D01*
X0084645Y0030919D01*
X0084614Y0030835D01*
X0084579Y0030753D01*
X0084541Y0030673D01*
X0084499Y0030594D01*
X0084454Y0030518D01*
X0084405Y0030443D01*
X0084353Y0030371D01*
X0084298Y0030301D01*
X0084239Y0030233D01*
X0084178Y0030169D01*
X0084114Y0030107D01*
X0084047Y0030048D01*
X0083978Y0029992D01*
X0083906Y0029939D01*
X0083832Y0029889D01*
X0083756Y0029843D01*
X0083678Y0029800D01*
X0083598Y0029761D01*
X0083516Y0029725D01*
X0083433Y0029693D01*
X0083349Y0029665D01*
X0083263Y0029640D01*
X0083176Y0029620D01*
X0083089Y0029603D01*
X0083000Y0029590D01*
X0082912Y0029581D01*
X0082823Y0029576D01*
X0082734Y0029575D01*
X0082645Y0029578D01*
X0082556Y0029585D01*
X0082467Y0029596D01*
X0082379Y0029611D01*
X0082292Y0029629D01*
X0082206Y0029652D01*
X0082121Y0029678D01*
X0082037Y0029709D01*
X0081955Y0029743D01*
X0081874Y0029780D01*
X0081795Y0029821D01*
X0081718Y0029866D01*
X0081643Y0029914D01*
X0081570Y0029965D01*
X0081499Y0030019D01*
X0081431Y0030077D01*
X0081366Y0030137D01*
X0081303Y0030201D01*
X0081243Y0030267D01*
X0081186Y0030336D01*
X0081133Y0030407D01*
X0081082Y0030480D01*
X0081035Y0030556D01*
X0080992Y0030633D01*
X0080951Y0030713D01*
X0080915Y0030794D01*
X0080882Y0030877D01*
X0080853Y0030961D01*
X0080827Y0031047D01*
X0080805Y0031133D01*
X0080788Y0031220D01*
X0080774Y0031308D01*
X0080764Y0031397D01*
X0080758Y0031486D01*
X0080756Y0031575D01*
X0080756Y0021732D02*
X0080758Y0021821D01*
X0080764Y0021910D01*
X0080774Y0021999D01*
X0080788Y0022087D01*
X0080805Y0022174D01*
X0080827Y0022260D01*
X0080853Y0022346D01*
X0080882Y0022430D01*
X0080915Y0022513D01*
X0080951Y0022594D01*
X0080992Y0022674D01*
X0081035Y0022751D01*
X0081082Y0022827D01*
X0081133Y0022900D01*
X0081186Y0022971D01*
X0081243Y0023040D01*
X0081303Y0023106D01*
X0081366Y0023170D01*
X0081431Y0023230D01*
X0081499Y0023288D01*
X0081570Y0023342D01*
X0081643Y0023393D01*
X0081718Y0023441D01*
X0081795Y0023486D01*
X0081874Y0023527D01*
X0081955Y0023564D01*
X0082037Y0023598D01*
X0082121Y0023629D01*
X0082206Y0023655D01*
X0082292Y0023678D01*
X0082379Y0023696D01*
X0082467Y0023711D01*
X0082556Y0023722D01*
X0082645Y0023729D01*
X0082734Y0023732D01*
X0082823Y0023731D01*
X0082912Y0023726D01*
X0083000Y0023717D01*
X0083089Y0023704D01*
X0083176Y0023687D01*
X0083263Y0023667D01*
X0083349Y0023642D01*
X0083433Y0023614D01*
X0083516Y0023582D01*
X0083598Y0023546D01*
X0083678Y0023507D01*
X0083756Y0023464D01*
X0083832Y0023418D01*
X0083906Y0023368D01*
X0083978Y0023315D01*
X0084047Y0023259D01*
X0084114Y0023200D01*
X0084178Y0023138D01*
X0084239Y0023074D01*
X0084298Y0023006D01*
X0084353Y0022936D01*
X0084405Y0022864D01*
X0084454Y0022789D01*
X0084499Y0022713D01*
X0084541Y0022634D01*
X0084579Y0022554D01*
X0084614Y0022472D01*
X0084645Y0022388D01*
X0084673Y0022303D01*
X0084696Y0022217D01*
X0084716Y0022130D01*
X0084732Y0022043D01*
X0084744Y0021954D01*
X0084752Y0021866D01*
X0084756Y0021777D01*
X0084756Y0021687D01*
X0084752Y0021598D01*
X0084744Y0021510D01*
X0084732Y0021421D01*
X0084716Y0021334D01*
X0084696Y0021247D01*
X0084673Y0021161D01*
X0084645Y0021076D01*
X0084614Y0020992D01*
X0084579Y0020910D01*
X0084541Y0020830D01*
X0084499Y0020751D01*
X0084454Y0020675D01*
X0084405Y0020600D01*
X0084353Y0020528D01*
X0084298Y0020458D01*
X0084239Y0020390D01*
X0084178Y0020326D01*
X0084114Y0020264D01*
X0084047Y0020205D01*
X0083978Y0020149D01*
X0083906Y0020096D01*
X0083832Y0020046D01*
X0083756Y0020000D01*
X0083678Y0019957D01*
X0083598Y0019918D01*
X0083516Y0019882D01*
X0083433Y0019850D01*
X0083349Y0019822D01*
X0083263Y0019797D01*
X0083176Y0019777D01*
X0083089Y0019760D01*
X0083000Y0019747D01*
X0082912Y0019738D01*
X0082823Y0019733D01*
X0082734Y0019732D01*
X0082645Y0019735D01*
X0082556Y0019742D01*
X0082467Y0019753D01*
X0082379Y0019768D01*
X0082292Y0019786D01*
X0082206Y0019809D01*
X0082121Y0019835D01*
X0082037Y0019866D01*
X0081955Y0019900D01*
X0081874Y0019937D01*
X0081795Y0019978D01*
X0081718Y0020023D01*
X0081643Y0020071D01*
X0081570Y0020122D01*
X0081499Y0020176D01*
X0081431Y0020234D01*
X0081366Y0020294D01*
X0081303Y0020358D01*
X0081243Y0020424D01*
X0081186Y0020493D01*
X0081133Y0020564D01*
X0081082Y0020637D01*
X0081035Y0020713D01*
X0080992Y0020790D01*
X0080951Y0020870D01*
X0080915Y0020951D01*
X0080882Y0021034D01*
X0080853Y0021118D01*
X0080827Y0021204D01*
X0080805Y0021290D01*
X0080788Y0021377D01*
X0080774Y0021465D01*
X0080764Y0021554D01*
X0080758Y0021643D01*
X0080756Y0021732D01*
X0080756Y0011890D02*
X0080758Y0011979D01*
X0080764Y0012068D01*
X0080774Y0012157D01*
X0080788Y0012245D01*
X0080805Y0012332D01*
X0080827Y0012418D01*
X0080853Y0012504D01*
X0080882Y0012588D01*
X0080915Y0012671D01*
X0080951Y0012752D01*
X0080992Y0012832D01*
X0081035Y0012909D01*
X0081082Y0012985D01*
X0081133Y0013058D01*
X0081186Y0013129D01*
X0081243Y0013198D01*
X0081303Y0013264D01*
X0081366Y0013328D01*
X0081431Y0013388D01*
X0081499Y0013446D01*
X0081570Y0013500D01*
X0081643Y0013551D01*
X0081718Y0013599D01*
X0081795Y0013644D01*
X0081874Y0013685D01*
X0081955Y0013722D01*
X0082037Y0013756D01*
X0082121Y0013787D01*
X0082206Y0013813D01*
X0082292Y0013836D01*
X0082379Y0013854D01*
X0082467Y0013869D01*
X0082556Y0013880D01*
X0082645Y0013887D01*
X0082734Y0013890D01*
X0082823Y0013889D01*
X0082912Y0013884D01*
X0083000Y0013875D01*
X0083089Y0013862D01*
X0083176Y0013845D01*
X0083263Y0013825D01*
X0083349Y0013800D01*
X0083433Y0013772D01*
X0083516Y0013740D01*
X0083598Y0013704D01*
X0083678Y0013665D01*
X0083756Y0013622D01*
X0083832Y0013576D01*
X0083906Y0013526D01*
X0083978Y0013473D01*
X0084047Y0013417D01*
X0084114Y0013358D01*
X0084178Y0013296D01*
X0084239Y0013232D01*
X0084298Y0013164D01*
X0084353Y0013094D01*
X0084405Y0013022D01*
X0084454Y0012947D01*
X0084499Y0012871D01*
X0084541Y0012792D01*
X0084579Y0012712D01*
X0084614Y0012630D01*
X0084645Y0012546D01*
X0084673Y0012461D01*
X0084696Y0012375D01*
X0084716Y0012288D01*
X0084732Y0012201D01*
X0084744Y0012112D01*
X0084752Y0012024D01*
X0084756Y0011935D01*
X0084756Y0011845D01*
X0084752Y0011756D01*
X0084744Y0011668D01*
X0084732Y0011579D01*
X0084716Y0011492D01*
X0084696Y0011405D01*
X0084673Y0011319D01*
X0084645Y0011234D01*
X0084614Y0011150D01*
X0084579Y0011068D01*
X0084541Y0010988D01*
X0084499Y0010909D01*
X0084454Y0010833D01*
X0084405Y0010758D01*
X0084353Y0010686D01*
X0084298Y0010616D01*
X0084239Y0010548D01*
X0084178Y0010484D01*
X0084114Y0010422D01*
X0084047Y0010363D01*
X0083978Y0010307D01*
X0083906Y0010254D01*
X0083832Y0010204D01*
X0083756Y0010158D01*
X0083678Y0010115D01*
X0083598Y0010076D01*
X0083516Y0010040D01*
X0083433Y0010008D01*
X0083349Y0009980D01*
X0083263Y0009955D01*
X0083176Y0009935D01*
X0083089Y0009918D01*
X0083000Y0009905D01*
X0082912Y0009896D01*
X0082823Y0009891D01*
X0082734Y0009890D01*
X0082645Y0009893D01*
X0082556Y0009900D01*
X0082467Y0009911D01*
X0082379Y0009926D01*
X0082292Y0009944D01*
X0082206Y0009967D01*
X0082121Y0009993D01*
X0082037Y0010024D01*
X0081955Y0010058D01*
X0081874Y0010095D01*
X0081795Y0010136D01*
X0081718Y0010181D01*
X0081643Y0010229D01*
X0081570Y0010280D01*
X0081499Y0010334D01*
X0081431Y0010392D01*
X0081366Y0010452D01*
X0081303Y0010516D01*
X0081243Y0010582D01*
X0081186Y0010651D01*
X0081133Y0010722D01*
X0081082Y0010795D01*
X0081035Y0010871D01*
X0080992Y0010948D01*
X0080951Y0011028D01*
X0080915Y0011109D01*
X0080882Y0011192D01*
X0080853Y0011276D01*
X0080827Y0011362D01*
X0080805Y0011448D01*
X0080788Y0011535D01*
X0080774Y0011623D01*
X0080764Y0011712D01*
X0080758Y0011801D01*
X0080756Y0011890D01*
M02*
