G75*
%MOIN*%
%OFA0B0*%
%FSLAX25Y25*%
%IPPOS*%
%LPD*%
%AMOC8*
5,1,8,0,0,1.08239X$1,22.5*
%
%ADD10C,0.00394*%
%ADD11C,0.00200*%
%ADD12C,0.00500*%
D10*
X0005000Y0005000D02*
X0005000Y0048307D01*
X0087677Y0048307D02*
X0087677Y0005000D01*
D11*
X0073798Y0014943D02*
X0071240Y0014943D01*
X0071240Y0016222D01*
X0071666Y0016648D01*
X0072519Y0016648D01*
X0072945Y0016222D01*
X0072945Y0014943D01*
X0072945Y0015795D02*
X0073798Y0016648D01*
X0073798Y0017480D02*
X0073798Y0018759D01*
X0073371Y0019186D01*
X0072945Y0019186D01*
X0072519Y0018759D01*
X0072519Y0017480D01*
X0073798Y0017480D02*
X0071240Y0017480D01*
X0071240Y0018759D01*
X0071666Y0019186D01*
X0072092Y0019186D01*
X0072519Y0018759D01*
X0072092Y0020018D02*
X0072519Y0020444D01*
X0072519Y0021297D01*
X0072945Y0021723D01*
X0073371Y0021723D01*
X0073798Y0021297D01*
X0073798Y0020444D01*
X0073371Y0020018D01*
X0072092Y0020018D02*
X0071666Y0020018D01*
X0071240Y0020444D01*
X0071240Y0021297D01*
X0071666Y0021723D01*
X0071666Y0022555D02*
X0073371Y0022555D01*
X0073798Y0022982D01*
X0073798Y0023834D01*
X0073371Y0024261D01*
X0071666Y0024261D02*
X0071240Y0023834D01*
X0071240Y0022982D01*
X0071666Y0022555D01*
X0071666Y0027631D02*
X0071240Y0028057D01*
X0071240Y0028910D01*
X0071666Y0029336D01*
X0072092Y0029336D01*
X0073798Y0027631D01*
X0073798Y0029336D01*
X0073371Y0030168D02*
X0071666Y0031873D01*
X0073371Y0031873D01*
X0073798Y0031447D01*
X0073798Y0030594D01*
X0073371Y0030168D01*
X0071666Y0030168D01*
X0071240Y0030594D01*
X0071240Y0031447D01*
X0071666Y0031873D01*
X0071666Y0032706D02*
X0071240Y0033132D01*
X0071240Y0033985D01*
X0071666Y0034411D01*
X0072092Y0034411D01*
X0073798Y0032706D01*
X0073798Y0034411D01*
X0073371Y0035243D02*
X0073798Y0035670D01*
X0073798Y0036522D01*
X0073371Y0036949D01*
X0072945Y0036949D01*
X0072519Y0036522D01*
X0072519Y0036096D01*
X0072519Y0036522D02*
X0072092Y0036949D01*
X0071666Y0036949D01*
X0071240Y0036522D01*
X0071240Y0035670D01*
X0071666Y0035243D01*
X0080493Y0044470D02*
X0081083Y0045650D01*
X0081716Y0045650D02*
X0082306Y0046240D01*
X0082306Y0044470D01*
X0081716Y0044470D02*
X0082896Y0044470D01*
X0083528Y0044470D02*
X0083823Y0044470D01*
X0083823Y0044765D01*
X0083528Y0044765D01*
X0083528Y0044470D01*
X0084435Y0044765D02*
X0085615Y0045945D01*
X0085615Y0044765D01*
X0085320Y0044470D01*
X0084730Y0044470D01*
X0084435Y0044765D01*
X0084435Y0045945D01*
X0084730Y0046240D01*
X0085320Y0046240D01*
X0085615Y0045945D01*
X0080493Y0044470D02*
X0079903Y0045650D01*
X0013686Y0045945D02*
X0013391Y0046240D01*
X0012801Y0046240D01*
X0012506Y0045945D01*
X0012506Y0045650D01*
X0012801Y0045355D01*
X0013391Y0045355D01*
X0013686Y0045060D01*
X0013686Y0044765D01*
X0013391Y0044470D01*
X0012801Y0044470D01*
X0012506Y0044765D01*
X0011874Y0044470D02*
X0011874Y0046240D01*
X0011284Y0045650D01*
X0010694Y0046240D01*
X0010694Y0044470D01*
X0010061Y0044765D02*
X0010061Y0045945D01*
X0009766Y0046240D01*
X0008881Y0046240D01*
X0008881Y0044470D01*
X0009766Y0044470D01*
X0010061Y0044765D01*
X0008249Y0044765D02*
X0008249Y0045355D01*
X0007659Y0045355D01*
X0008249Y0044765D02*
X0007954Y0044470D01*
X0007363Y0044470D01*
X0007069Y0044765D01*
X0007069Y0045945D01*
X0007363Y0046240D01*
X0007954Y0046240D01*
X0008249Y0045945D01*
D12*
X0005984Y0005000D02*
X0005000Y0005000D01*
X0005000Y0005984D01*
X0010906Y0005984D01*
X0010906Y0005000D01*
X0005984Y0005000D01*
X0005984Y0010906D01*
X0005000Y0010906D01*
X0005000Y0005984D01*
X0010906Y0005000D02*
X0081772Y0005000D01*
X0081772Y0005984D01*
X0087677Y0005984D01*
X0087677Y0010906D01*
X0086693Y0010906D01*
X0086693Y0005000D01*
X0087677Y0005000D01*
X0087677Y0005984D01*
X0086693Y0005000D02*
X0081772Y0005000D01*
X0087677Y0010906D02*
X0087677Y0042402D01*
X0086693Y0042402D01*
X0086693Y0048307D01*
X0081772Y0048307D01*
X0081772Y0047323D01*
X0087677Y0047323D01*
X0087677Y0048307D01*
X0086693Y0048307D01*
X0087677Y0047323D02*
X0087677Y0042402D01*
X0081772Y0048307D02*
X0010906Y0048307D01*
X0010906Y0047323D01*
X0005000Y0047323D01*
X0005000Y0042402D01*
X0005984Y0042402D01*
X0005984Y0048307D01*
X0005000Y0048307D01*
X0005000Y0047323D01*
X0005984Y0048307D02*
X0010906Y0048307D01*
X0005000Y0042402D02*
X0005000Y0010906D01*
M02*
