G75*
%MOIN*%
%OFA0B0*%
%FSLAX25Y25*%
%IPPOS*%
%LPD*%
%AMOC8*
5,1,8,0,0,1.08239X$1,22.5*
%
%ADD10R,0.07874X0.05906*%
%ADD11R,0.11811X0.02953*%
%ADD12R,0.05300X0.05300*%
%ADD13R,0.03162X0.06706*%
%ADD14C,0.04800*%
%ADD15R,0.06706X0.05918*%
D10*
X0009921Y0011890D03*
X0009921Y0021732D03*
X0009921Y0031575D03*
X0009921Y0041417D03*
X0082756Y0041417D03*
X0082756Y0031575D03*
X0082756Y0021732D03*
X0082756Y0011890D03*
D11*
X0010906Y0006476D03*
X0081772Y0006476D03*
X0081772Y0046831D03*
X0010906Y0046831D03*
D12*
X0021250Y0043297D03*
X0031250Y0043297D03*
X0041250Y0043297D03*
X0051250Y0043297D03*
X0061250Y0043297D03*
X0071250Y0043297D03*
X0071250Y0009833D03*
X0061250Y0009833D03*
X0051250Y0009833D03*
X0041250Y0009833D03*
X0031250Y0009833D03*
X0021250Y0009833D03*
D13*
X0028839Y0016522D03*
X0033839Y0016522D03*
X0038839Y0016522D03*
X0043839Y0016522D03*
X0048839Y0016522D03*
X0053839Y0016522D03*
X0058839Y0016522D03*
X0063839Y0016522D03*
X0063839Y0036785D03*
X0058839Y0036785D03*
X0053839Y0036785D03*
X0048839Y0036785D03*
X0043839Y0036785D03*
X0038839Y0036785D03*
X0033839Y0036785D03*
X0028839Y0036785D03*
D14*
X0009921Y0041417D03*
X0009921Y0031575D03*
X0009921Y0021732D03*
X0009921Y0011890D03*
X0082756Y0011890D03*
X0082756Y0021732D03*
X0082756Y0031575D03*
X0082756Y0041417D03*
D15*
X0020748Y0030394D03*
X0020748Y0022913D03*
M02*
