%
M48
M72
T01C0.0157
T02C0.0250
T03C0.0300
T04C0.0400
%
T01
X1583Y1091
X2075Y1583
X3256Y2469
X3748Y2764
X3256Y3059
X2469Y3650
X3650Y4535
X4831Y3059
X4240Y2173
X4634Y992
T02
X5125Y983
X4125Y983
X3125Y983
X2125Y983
X6125Y983
X7125Y983
X7125Y4330
X6125Y4330
X5125Y4330
X4125Y4330
X3125Y4330
X2125Y4330
T03
X992Y4142
X992Y3157
X992Y2173
X992Y1189
X8276Y1189
X8276Y2173
X8276Y3157
X8276Y4142
T04
X8276Y4142
X8276Y3157
X8276Y2173
X8276Y1189
X992Y1189
X992Y2173
X992Y3157
X992Y4142
M30
