G75*
%MOIN*%
%OFA0B0*%
%FSLAX25Y25*%
%IPPOS*%
%LPD*%
%AMOC8*
5,1,8,0,0,1.08239X$1,22.5*
%
%ADD10R,0.11811X0.02953*%
%ADD11R,0.04500X0.04500*%
%ADD12R,0.02362X0.05906*%
%ADD13R,0.05000X0.05000*%
%ADD14R,0.07500X0.05000*%
%ADD15R,0.05906X0.05118*%
%ADD16C,0.01181*%
%ADD17C,0.03175*%
%ADD18C,0.01969*%
%ADD19R,0.03175X0.03175*%
D10*
X0010906Y0006476D03*
X0081772Y0006476D03*
X0081772Y0046831D03*
X0010906Y0046831D03*
D11*
X0021250Y0043297D03*
X0031250Y0043297D03*
X0041250Y0043297D03*
X0051250Y0043297D03*
X0061250Y0043297D03*
X0071250Y0043297D03*
X0071250Y0009833D03*
X0061250Y0009833D03*
X0051250Y0009833D03*
X0041250Y0009833D03*
X0031250Y0009833D03*
X0021250Y0009833D03*
D12*
X0028839Y0016522D03*
X0033839Y0016522D03*
X0038839Y0016522D03*
X0043839Y0016522D03*
X0048839Y0016522D03*
X0053839Y0016522D03*
X0058839Y0016522D03*
X0063839Y0016522D03*
X0063839Y0036785D03*
X0058839Y0036785D03*
X0053839Y0036785D03*
X0048839Y0036785D03*
X0043839Y0036785D03*
X0038839Y0036785D03*
X0033839Y0036785D03*
X0028839Y0036785D03*
D13*
X0009921Y0041417D03*
X0009921Y0031575D03*
X0009921Y0021732D03*
X0009921Y0011890D03*
X0082756Y0011890D03*
X0082756Y0021732D03*
X0082756Y0031575D03*
X0082756Y0041417D03*
D14*
X0082756Y0041417D03*
X0082756Y0031575D03*
X0082756Y0021732D03*
X0082756Y0011890D03*
X0009921Y0011890D03*
X0009921Y0021732D03*
X0009921Y0031575D03*
X0009921Y0041417D03*
D15*
X0020748Y0030394D03*
X0020748Y0022913D03*
D16*
X0029606Y0022717D02*
X0031575Y0020748D01*
X0031575Y0010157D01*
X0031250Y0009833D01*
X0025098Y0005984D02*
X0055197Y0005984D01*
X0056181Y0006969D01*
X0056181Y0029606D01*
X0053839Y0031949D01*
X0053839Y0036785D01*
X0058839Y0036785D02*
X0058839Y0038760D01*
X0056181Y0041417D01*
X0056181Y0045354D01*
X0054213Y0047323D01*
X0043386Y0047323D01*
X0041417Y0045354D01*
X0041417Y0043465D01*
X0041250Y0043297D01*
X0036496Y0041417D02*
X0039449Y0038465D01*
X0039449Y0037395D01*
X0038839Y0036785D01*
X0043839Y0036785D02*
X0044370Y0036254D01*
X0044370Y0024685D01*
X0046339Y0022717D01*
X0049291Y0022717D01*
X0051250Y0020758D01*
X0051250Y0009833D01*
X0046339Y0009921D02*
X0046339Y0011890D01*
X0048307Y0013858D01*
X0048307Y0015991D01*
X0048839Y0016522D01*
X0053839Y0016522D02*
X0054213Y0016896D01*
X0054213Y0027638D01*
X0051250Y0030600D01*
X0051250Y0043297D01*
X0061102Y0043150D02*
X0061250Y0043297D01*
X0061102Y0043150D02*
X0061102Y0031575D01*
X0058839Y0029311D01*
X0058839Y0016522D01*
X0061250Y0009833D02*
X0061250Y0027785D01*
X0064055Y0030591D01*
X0064055Y0036569D01*
X0063839Y0036785D01*
X0048839Y0036785D02*
X0048839Y0031122D01*
X0048307Y0030591D01*
X0038839Y0026280D02*
X0037480Y0027638D01*
X0038839Y0026280D02*
X0038839Y0016522D01*
X0033839Y0016522D02*
X0033839Y0023406D01*
X0032559Y0024685D01*
X0029606Y0022717D02*
X0029606Y0028622D01*
X0031575Y0030591D01*
X0032559Y0030591D01*
X0033839Y0036785D02*
X0033839Y0040709D01*
X0031250Y0043297D01*
X0036496Y0041417D02*
X0036496Y0045354D01*
X0021250Y0043297D02*
X0020659Y0043297D01*
X0015827Y0038465D01*
X0015827Y0010906D01*
X0021250Y0009833D02*
X0025098Y0005984D01*
D17*
X0015827Y0010906D03*
X0032559Y0024685D03*
X0037480Y0027638D03*
X0032559Y0030591D03*
X0048307Y0030591D03*
X0036496Y0045354D03*
X0046339Y0009921D03*
D18*
X0043839Y0016522D02*
X0043839Y0020295D01*
X0042402Y0021732D01*
X0020748Y0022913D02*
X0020748Y0015827D01*
X0020748Y0030394D02*
X0020748Y0032559D01*
X0024685Y0036496D01*
X0024974Y0036785D01*
X0028839Y0036785D01*
D19*
X0024685Y0036496D03*
X0042402Y0021732D03*
X0020748Y0015827D03*
M02*
