G75*
%MOIN*%
%OFA0B0*%
%FSLAX25Y25*%
%IPPOS*%
%LPD*%
%AMOC8*
5,1,8,0,0,1.08239X$1,22.5*
%
%ADD10C,0.00200*%
%ADD11C,0.00600*%
D10*
X0014943Y0011079D02*
X0015533Y0010489D01*
X0016713Y0010489D01*
X0015533Y0011669D02*
X0014943Y0011079D01*
X0015533Y0011669D02*
X0016713Y0011669D01*
X0016418Y0012302D02*
X0015238Y0012302D01*
X0014943Y0012597D01*
X0014943Y0013187D01*
X0015238Y0013482D01*
X0016418Y0013482D02*
X0016713Y0013187D01*
X0016713Y0012597D01*
X0016418Y0012302D01*
X0016418Y0014114D02*
X0015238Y0014114D01*
X0014943Y0014409D01*
X0014943Y0014999D01*
X0015238Y0015294D01*
X0016418Y0015294D02*
X0016713Y0014999D01*
X0016713Y0014409D01*
X0016418Y0014114D01*
X0017335Y0016911D02*
X0017335Y0018681D01*
X0016155Y0018681D01*
X0016745Y0017796D02*
X0017335Y0017796D01*
X0017967Y0017796D02*
X0017967Y0016911D01*
X0019147Y0016911D02*
X0019147Y0018091D01*
X0018262Y0018091D01*
X0017967Y0017796D01*
X0019780Y0017206D02*
X0020075Y0016911D01*
X0020665Y0016911D01*
X0020960Y0017206D01*
X0019780Y0018386D01*
X0019780Y0017206D01*
X0020960Y0017206D02*
X0020960Y0018386D01*
X0020665Y0018681D01*
X0020075Y0018681D01*
X0019780Y0018386D01*
X0021592Y0018386D02*
X0021592Y0017206D01*
X0021887Y0016911D01*
X0022477Y0016911D01*
X0022772Y0017206D01*
X0021592Y0018386D01*
X0021887Y0018681D01*
X0022477Y0018681D01*
X0022772Y0018386D01*
X0022772Y0017206D01*
X0023405Y0016911D02*
X0024585Y0016911D01*
X0023995Y0016911D02*
X0023995Y0018681D01*
X0024585Y0018091D01*
X0016713Y0020627D02*
X0016418Y0020332D01*
X0015238Y0020332D01*
X0014943Y0020627D01*
X0014943Y0021217D01*
X0015238Y0021512D01*
X0014943Y0022144D02*
X0014943Y0023324D01*
X0014943Y0023957D02*
X0016713Y0023957D01*
X0015828Y0024252D02*
X0014943Y0025137D01*
X0015533Y0023957D02*
X0016713Y0025137D01*
X0016713Y0027826D02*
X0014943Y0027826D01*
X0014943Y0028711D01*
X0015238Y0029006D01*
X0016418Y0029006D01*
X0016713Y0028711D01*
X0016713Y0027826D01*
X0016713Y0029638D02*
X0016713Y0030228D01*
X0016713Y0029933D02*
X0014943Y0029933D01*
X0014943Y0029638D02*
X0014943Y0030228D01*
X0015238Y0030846D02*
X0014943Y0031141D01*
X0014943Y0031731D01*
X0015238Y0032026D01*
X0016418Y0032026D01*
X0016713Y0031731D01*
X0016713Y0031141D01*
X0016418Y0030846D01*
X0015238Y0030846D01*
X0015238Y0037064D02*
X0014943Y0037359D01*
X0014943Y0037949D01*
X0015238Y0038244D01*
X0015828Y0038244D01*
X0015828Y0037654D01*
X0016418Y0038244D02*
X0016713Y0037949D01*
X0016713Y0037359D01*
X0016418Y0037064D01*
X0015238Y0037064D01*
X0014943Y0038876D02*
X0016713Y0038876D01*
X0014943Y0040056D01*
X0016713Y0040056D01*
X0016713Y0040689D02*
X0016713Y0041574D01*
X0016418Y0041869D01*
X0015238Y0041869D01*
X0014943Y0041574D01*
X0014943Y0040689D01*
X0016713Y0040689D01*
X0024785Y0041123D02*
X0025965Y0041713D01*
X0025965Y0042346D02*
X0026555Y0042936D01*
X0024785Y0042936D01*
X0024785Y0042346D02*
X0024785Y0043526D01*
X0024785Y0044158D02*
X0024785Y0044453D01*
X0025080Y0044453D01*
X0025080Y0044158D01*
X0024785Y0044158D01*
X0025080Y0045064D02*
X0024785Y0045359D01*
X0024785Y0045949D01*
X0025080Y0046244D01*
X0026260Y0046244D01*
X0025080Y0045064D01*
X0026260Y0045064D01*
X0026555Y0045359D01*
X0026555Y0045949D01*
X0026260Y0046244D01*
X0024785Y0041123D02*
X0025965Y0040533D01*
X0026339Y0032954D02*
X0066339Y0032954D01*
X0070061Y0032706D02*
X0071766Y0034411D01*
X0072192Y0034411D01*
X0072619Y0033985D01*
X0072619Y0033132D01*
X0072192Y0032706D01*
X0072192Y0031873D02*
X0070487Y0030168D01*
X0070061Y0030594D01*
X0070061Y0031447D01*
X0070487Y0031873D01*
X0072192Y0031873D01*
X0072619Y0031447D01*
X0072619Y0030594D01*
X0072192Y0030168D01*
X0070487Y0030168D01*
X0070061Y0029336D02*
X0070061Y0027631D01*
X0071766Y0029336D01*
X0072192Y0029336D01*
X0072619Y0028910D01*
X0072619Y0028057D01*
X0072192Y0027631D01*
X0075966Y0027826D02*
X0075966Y0028711D01*
X0076261Y0029006D01*
X0077441Y0029006D01*
X0077736Y0028711D01*
X0077736Y0027826D01*
X0075966Y0027826D01*
X0075966Y0029638D02*
X0075966Y0030228D01*
X0075966Y0029933D02*
X0077736Y0029933D01*
X0077736Y0029638D02*
X0077736Y0030228D01*
X0077441Y0030846D02*
X0076261Y0030846D01*
X0075966Y0031141D01*
X0075966Y0031731D01*
X0076261Y0032026D01*
X0077441Y0032026D01*
X0077736Y0031731D01*
X0077736Y0031141D01*
X0077441Y0030846D01*
X0072619Y0035670D02*
X0072192Y0035243D01*
X0072619Y0035670D02*
X0072619Y0036522D01*
X0072192Y0036949D01*
X0071766Y0036949D01*
X0071340Y0036522D01*
X0070913Y0036949D01*
X0070487Y0036949D01*
X0070061Y0036522D01*
X0070061Y0035670D01*
X0070487Y0035243D01*
X0070061Y0034411D02*
X0070061Y0032706D01*
X0071340Y0036096D02*
X0071340Y0036522D01*
X0075966Y0037359D02*
X0076261Y0037064D01*
X0077441Y0037064D01*
X0077736Y0037359D01*
X0077736Y0037949D01*
X0077441Y0038244D01*
X0076851Y0038244D02*
X0076851Y0037654D01*
X0076851Y0038244D02*
X0076261Y0038244D01*
X0075966Y0037949D01*
X0075966Y0037359D01*
X0075966Y0038876D02*
X0077736Y0038876D01*
X0075966Y0040056D01*
X0077736Y0040056D01*
X0077736Y0040689D02*
X0077736Y0041574D01*
X0077441Y0041869D01*
X0076261Y0041869D01*
X0075966Y0041574D01*
X0075966Y0040689D01*
X0077736Y0040689D01*
X0067894Y0040434D02*
X0067894Y0039844D01*
X0067599Y0039549D01*
X0066419Y0039549D01*
X0066124Y0039844D01*
X0066124Y0040434D01*
X0066419Y0040729D01*
X0067009Y0040729D01*
X0067009Y0040139D01*
X0067599Y0040729D02*
X0067894Y0040434D01*
X0067894Y0041361D02*
X0066124Y0041361D01*
X0066124Y0042246D01*
X0066419Y0042541D01*
X0067599Y0042541D01*
X0067894Y0042246D01*
X0067894Y0041361D01*
X0067894Y0043174D02*
X0066124Y0043174D01*
X0067304Y0043764D02*
X0067894Y0044354D01*
X0066124Y0044354D01*
X0067304Y0043764D02*
X0067894Y0043174D01*
X0067599Y0044987D02*
X0067304Y0044987D01*
X0067009Y0045281D01*
X0067009Y0045872D01*
X0066714Y0046167D01*
X0066419Y0046167D01*
X0066124Y0045872D01*
X0066124Y0045281D01*
X0066419Y0044987D01*
X0067599Y0044987D02*
X0067894Y0045281D01*
X0067894Y0045872D01*
X0067599Y0046167D01*
X0053128Y0028327D02*
X0051423Y0028327D01*
X0050591Y0028327D02*
X0049738Y0027475D01*
X0048885Y0028327D01*
X0048885Y0025769D01*
X0048053Y0025769D02*
X0046348Y0025769D01*
X0047200Y0025769D02*
X0047200Y0028327D01*
X0048053Y0027475D01*
X0045516Y0027048D02*
X0044237Y0027048D01*
X0043810Y0026622D01*
X0043810Y0026196D01*
X0044237Y0025769D01*
X0045089Y0025769D01*
X0045516Y0026196D01*
X0045516Y0027048D01*
X0044663Y0027901D01*
X0043810Y0028327D01*
X0042978Y0028327D02*
X0042978Y0027048D01*
X0042125Y0027475D01*
X0041699Y0027475D01*
X0041273Y0027048D01*
X0041273Y0026196D01*
X0041699Y0025769D01*
X0042552Y0025769D01*
X0042978Y0026196D01*
X0040440Y0025769D02*
X0038735Y0025769D01*
X0039588Y0025769D02*
X0039588Y0028327D01*
X0040440Y0027475D01*
X0041273Y0028327D02*
X0042978Y0028327D01*
X0050591Y0028327D02*
X0050591Y0025769D01*
X0052276Y0025769D02*
X0052276Y0028327D01*
X0070061Y0023834D02*
X0070061Y0022982D01*
X0070487Y0022555D01*
X0072192Y0022555D01*
X0072619Y0022982D01*
X0072619Y0023834D01*
X0072192Y0024261D01*
X0070487Y0024261D02*
X0070061Y0023834D01*
X0070487Y0021723D02*
X0070061Y0021297D01*
X0070061Y0020444D01*
X0070487Y0020018D01*
X0070487Y0019186D02*
X0070061Y0018759D01*
X0070061Y0017480D01*
X0072619Y0017480D01*
X0072619Y0018759D01*
X0072192Y0019186D01*
X0071766Y0019186D01*
X0071340Y0018759D01*
X0071340Y0017480D01*
X0071340Y0016648D02*
X0070913Y0016222D01*
X0070913Y0014943D01*
X0070061Y0014943D02*
X0072619Y0014943D01*
X0072619Y0016222D01*
X0072192Y0016648D01*
X0071340Y0016648D01*
X0070913Y0015795D02*
X0070061Y0016648D01*
X0071340Y0018759D02*
X0070913Y0019186D01*
X0070487Y0019186D01*
X0071340Y0020444D02*
X0071766Y0020018D01*
X0072192Y0020018D01*
X0072619Y0020444D01*
X0072619Y0021297D01*
X0072192Y0021723D01*
X0071340Y0021297D02*
X0070913Y0021723D01*
X0070487Y0021723D01*
X0071340Y0021297D02*
X0071340Y0020444D01*
X0075966Y0020627D02*
X0075966Y0021217D01*
X0076261Y0021512D01*
X0075966Y0022144D02*
X0075966Y0023324D01*
X0075966Y0023957D02*
X0077736Y0023957D01*
X0076851Y0024252D02*
X0075966Y0025137D01*
X0076556Y0023957D02*
X0077736Y0025137D01*
X0077736Y0022144D02*
X0075966Y0022144D01*
X0077441Y0021512D02*
X0077736Y0021217D01*
X0077736Y0020627D01*
X0077441Y0020332D01*
X0076261Y0020332D01*
X0075966Y0020627D01*
X0076261Y0015294D02*
X0075966Y0014999D01*
X0075966Y0014409D01*
X0076261Y0014114D01*
X0077441Y0014114D01*
X0077736Y0014409D01*
X0077736Y0014999D01*
X0077441Y0015294D01*
X0077441Y0013482D02*
X0077736Y0013187D01*
X0077736Y0012597D01*
X0077441Y0012302D01*
X0076261Y0012302D01*
X0075966Y0012597D01*
X0075966Y0013187D01*
X0076261Y0013482D01*
X0076556Y0011669D02*
X0077736Y0011669D01*
X0076556Y0011669D02*
X0075966Y0011079D01*
X0076556Y0010489D01*
X0077736Y0010489D01*
X0016713Y0020627D02*
X0016713Y0021217D01*
X0016418Y0021512D01*
X0016713Y0022144D02*
X0014943Y0022144D01*
D11*
X0026339Y0020454D02*
X0026339Y0024654D01*
X0026339Y0028654D01*
X0026339Y0032854D01*
X0026341Y0032930D01*
X0026347Y0033006D01*
X0026356Y0033081D01*
X0026370Y0033156D01*
X0026387Y0033230D01*
X0026408Y0033303D01*
X0026432Y0033375D01*
X0026461Y0033446D01*
X0026492Y0033515D01*
X0026527Y0033582D01*
X0026566Y0033647D01*
X0026608Y0033711D01*
X0026653Y0033772D01*
X0026701Y0033831D01*
X0026752Y0033887D01*
X0026806Y0033941D01*
X0026862Y0033992D01*
X0026921Y0034040D01*
X0026982Y0034085D01*
X0027046Y0034127D01*
X0027111Y0034166D01*
X0027178Y0034201D01*
X0027247Y0034232D01*
X0027318Y0034261D01*
X0027390Y0034285D01*
X0027463Y0034306D01*
X0027537Y0034323D01*
X0027612Y0034337D01*
X0027687Y0034346D01*
X0027763Y0034352D01*
X0027839Y0034354D01*
X0064839Y0034354D01*
X0064915Y0034352D01*
X0064991Y0034346D01*
X0065066Y0034337D01*
X0065141Y0034323D01*
X0065215Y0034306D01*
X0065288Y0034285D01*
X0065360Y0034261D01*
X0065431Y0034232D01*
X0065500Y0034201D01*
X0065567Y0034166D01*
X0065632Y0034127D01*
X0065696Y0034085D01*
X0065757Y0034040D01*
X0065816Y0033992D01*
X0065872Y0033941D01*
X0065926Y0033887D01*
X0065977Y0033831D01*
X0066025Y0033772D01*
X0066070Y0033711D01*
X0066112Y0033647D01*
X0066151Y0033582D01*
X0066186Y0033515D01*
X0066217Y0033446D01*
X0066246Y0033375D01*
X0066270Y0033303D01*
X0066291Y0033230D01*
X0066308Y0033156D01*
X0066322Y0033081D01*
X0066331Y0033006D01*
X0066337Y0032930D01*
X0066339Y0032854D01*
X0066339Y0020454D01*
X0066337Y0020378D01*
X0066331Y0020302D01*
X0066322Y0020227D01*
X0066308Y0020152D01*
X0066291Y0020078D01*
X0066270Y0020005D01*
X0066246Y0019933D01*
X0066217Y0019862D01*
X0066186Y0019793D01*
X0066151Y0019726D01*
X0066112Y0019661D01*
X0066070Y0019597D01*
X0066025Y0019536D01*
X0065977Y0019477D01*
X0065926Y0019421D01*
X0065872Y0019367D01*
X0065816Y0019316D01*
X0065757Y0019268D01*
X0065696Y0019223D01*
X0065632Y0019181D01*
X0065567Y0019142D01*
X0065500Y0019107D01*
X0065431Y0019076D01*
X0065360Y0019047D01*
X0065288Y0019023D01*
X0065215Y0019002D01*
X0065141Y0018985D01*
X0065066Y0018971D01*
X0064991Y0018962D01*
X0064915Y0018956D01*
X0064839Y0018954D01*
X0027839Y0018954D01*
X0027763Y0018956D01*
X0027687Y0018962D01*
X0027612Y0018971D01*
X0027537Y0018985D01*
X0027463Y0019002D01*
X0027390Y0019023D01*
X0027318Y0019047D01*
X0027247Y0019076D01*
X0027178Y0019107D01*
X0027111Y0019142D01*
X0027046Y0019181D01*
X0026982Y0019223D01*
X0026921Y0019268D01*
X0026862Y0019316D01*
X0026806Y0019367D01*
X0026752Y0019421D01*
X0026701Y0019477D01*
X0026653Y0019536D01*
X0026608Y0019597D01*
X0026566Y0019661D01*
X0026527Y0019726D01*
X0026492Y0019793D01*
X0026461Y0019862D01*
X0026432Y0019933D01*
X0026408Y0020005D01*
X0026387Y0020078D01*
X0026370Y0020152D01*
X0026356Y0020227D01*
X0026347Y0020302D01*
X0026341Y0020378D01*
X0026339Y0020454D01*
X0026339Y0024654D02*
X0026427Y0024656D01*
X0026516Y0024662D01*
X0026604Y0024672D01*
X0026691Y0024685D01*
X0026778Y0024703D01*
X0026864Y0024724D01*
X0026949Y0024749D01*
X0027032Y0024778D01*
X0027115Y0024811D01*
X0027195Y0024847D01*
X0027274Y0024886D01*
X0027352Y0024929D01*
X0027427Y0024976D01*
X0027500Y0025026D01*
X0027571Y0025079D01*
X0027640Y0025135D01*
X0027706Y0025194D01*
X0027769Y0025256D01*
X0027829Y0025320D01*
X0027887Y0025387D01*
X0027941Y0025457D01*
X0027993Y0025529D01*
X0028041Y0025603D01*
X0028086Y0025680D01*
X0028127Y0025758D01*
X0028165Y0025838D01*
X0028199Y0025919D01*
X0028230Y0026002D01*
X0028257Y0026087D01*
X0028280Y0026172D01*
X0028299Y0026258D01*
X0028315Y0026346D01*
X0028327Y0026433D01*
X0028335Y0026521D01*
X0028339Y0026610D01*
X0028339Y0026698D01*
X0028335Y0026787D01*
X0028327Y0026875D01*
X0028315Y0026962D01*
X0028299Y0027050D01*
X0028280Y0027136D01*
X0028257Y0027221D01*
X0028230Y0027306D01*
X0028199Y0027389D01*
X0028165Y0027470D01*
X0028127Y0027550D01*
X0028086Y0027628D01*
X0028041Y0027705D01*
X0027993Y0027779D01*
X0027941Y0027851D01*
X0027887Y0027921D01*
X0027829Y0027988D01*
X0027769Y0028052D01*
X0027706Y0028114D01*
X0027640Y0028173D01*
X0027571Y0028229D01*
X0027500Y0028282D01*
X0027427Y0028332D01*
X0027352Y0028379D01*
X0027274Y0028422D01*
X0027195Y0028461D01*
X0027115Y0028497D01*
X0027032Y0028530D01*
X0026949Y0028559D01*
X0026864Y0028584D01*
X0026778Y0028605D01*
X0026691Y0028623D01*
X0026604Y0028636D01*
X0026516Y0028646D01*
X0026427Y0028652D01*
X0026339Y0028654D01*
M02*
